<svg width="5" height="4" viewBox="0 0 5 4" fill="none" xmlns="http://www.w3.org/2000/svg">
<path d="M1.75733 3.27032C1.96797 3.52309 2.07329 3.64948 2.19424 3.70612C2.35549 3.78165 2.54197 3.78165 2.70322 3.70612C2.82417 3.64948 2.92949 3.52309 3.14013 3.27032L4.21859 1.97617C4.56648 1.5587 4.74042 1.34997 4.76277 1.1768C4.79257 0.945906 4.68611 0.718615 4.48966 0.593692C4.34231 0.5 4.07061 0.5 3.52719 0.5L1.37027 0.5C0.826854 0.5 0.555147 0.5 0.407805 0.593691C0.211348 0.718614 0.10489 0.945906 0.134691 1.1768C0.157041 1.34997 0.330984 1.5587 0.678868 1.97617L1.75733 3.27032Z" fill="#00081A"/>
</svg>
